<svg width="390" height="844" viewBox="0 0 390 844" fill="none" xmlns="http://www.w3.org/2000/svg">
  <!-- Background -->
  <rect width="390" height="844" fill="#ffffff"/>
  
  <!-- Header -->
  <rect width="390" height="80" fill="#f97316"/>
  <text x="195" y="45" text-anchor="middle" fill="white" font-family="Arial, sans-serif" font-size="20" font-weight="bold">RX AUTOS</text>
  
  <!-- Search Bar -->
  <rect x="20" y="100" width="350" height="50" rx="25" fill="#f3f4f6" stroke="#e5e7eb"/>
  <text x="40" y="130" fill="#6b7280" font-family="Arial, sans-serif" font-size="14">Buscar veículos...</text>
  
  <!-- Vehicle Cards -->
  <g>
    <!-- Card 1 -->
    <rect x="20" y="170" width="350" height="180" rx="12" fill="white" stroke="#e5e7eb"/>
    <rect x="30" y="180" width="330" height="120" rx="8" fill="#f3f4f6"/>
    <rect x="140" y="220" width="120" height="40" rx="4" fill="#f97316"/>
    <text x="200" y="245" text-anchor="middle" fill="white" font-family="Arial, sans-serif" font-size="12" font-weight="bold">CARRO</text>
    <text x="30" y="320" fill="#1f2937" font-family="Arial, sans-serif" font-size="16" font-weight="bold">Honda Civic 2023</text>
    <text x="30" y="340" fill="#f97316" font-family="Arial, sans-serif" font-size="14" font-weight="bold">R$ 85.000</text>
    
    <!-- Card 2 -->
    <rect x="20" y="370" width="350" height="180" rx="12" fill="white" stroke="#e5e7eb"/>
    <rect x="30" y="380" width="330" height="120" rx="8" fill="#f3f4f6"/>
    <rect x="140" y="420" width="120" height="40" rx="4" fill="#f97316"/>
    <text x="200" y="445" text-anchor="middle" fill="white" font-family="Arial, sans-serif" font-size="12" font-weight="bold">CARRO</text>
    <text x="30" y="520" fill="#1f2937" font-family="Arial, sans-serif" font-size="16" font-weight="bold">Toyota Corolla 2022</text>
    <text x="30" y="540" fill="#f97316" font-family="Arial, sans-serif" font-size="14" font-weight="bold">R$ 78.000</text>
    
    <!-- Card 3 -->
    <rect x="20" y="570" width="350" height="180" rx="12" fill="white" stroke="#e5e7eb"/>
    <rect x="30" y="580" width="330" height="120" rx="8" fill="#f3f4f6"/>
    <rect x="140" y="620" width="120" height="40" rx="4" fill="#f97316"/>
    <text x="200" y="645" text-anchor="middle" fill="white" font-family="Arial, sans-serif" font-size="12" font-weight="bold">CARRO</text>
    <text x="30" y="720" fill="#1f2937" font-family="Arial, sans-serif" font-size="16" font-weight="bold">Volkswagen Jetta 2023</text>
    <text x="30" y="740" fill="#f97316" font-family="Arial, sans-serif" font-size="14" font-weight="bold">R$ 92.000</text>
  </g>
  
  <!-- Bottom Navigation -->
  <rect x="0" y="764" width="390" height="80" fill="white" stroke="#e5e7eb"/>
  <circle cx="78" cy="804" r="20" fill="#f97316"/>
  <circle cx="195" cy="804" r="20" fill="#e5e7eb"/>
  <circle cx="312" cy="804" r="20" fill="#e5e7eb"/>
  
  <!-- PWA Install Banner -->
  <rect x="20" y="680" width="350" height="100" rx="12" fill="url(#gradient)" fill-opacity="0.95"/>
  <defs>
    <linearGradient id="gradient" x1="0%" y1="0%" x2="100%" y2="0%">
      <stop offset="0%" style="stop-color:#f97316;stop-opacity:1" />
      <stop offset="100%" style="stop-color:#dc2626;stop-opacity:1" />
    </linearGradient>
  </defs>
  <text x="195" y="710" text-anchor="middle" fill="white" font-family="Arial, sans-serif" font-size="14" font-weight="bold">📱 Instalar RX AUTOS</text>
  <text x="195" y="730" text-anchor="middle" fill="white" font-family="Arial, sans-serif" font-size="12">Acesso rápido e offline</text>
  <rect x="80" y="745" width="80" height="25" rx="12" fill="white"/>
  <text x="120" y="762" text-anchor="middle" fill="#f97316" font-family="Arial, sans-serif" font-size="12" font-weight="bold">Instalar</text>
  <rect x="230" y="745" width="80" height="25" rx="12" fill="rgba(255,255,255,0.2)"/>
  <text x="270" y="762" text-anchor="middle" fill="white" font-family="Arial, sans-serif" font-size="12">Depois</text>
</svg>